<svg width="249" height="89" viewBox="0 0 249 89" fill="none" xmlns="http://www.w3.org/2000/svg">
<path d="M59.1362 36.28C60.5228 36.28 61.7495 36.4827 62.8162 36.888C63.9042 37.2934 64.9282 37.9014 65.8882 38.712L63.3922 41.688C62.7308 41.176 62.0802 40.792 61.4402 40.536C60.8002 40.28 60.1175 40.152 59.3922 40.152C57.8988 40.152 56.7148 40.7814 55.8402 42.04C54.9868 43.2987 54.5602 45.24 54.5602 47.864C54.5602 50.4454 54.9868 52.3654 55.8402 53.624C56.7148 54.8614 57.9202 55.48 59.4562 55.48C60.2668 55.48 61.0028 55.3307 61.6642 55.032C62.3255 54.712 63.0402 54.264 63.8082 53.688L66.1442 56.696C65.3122 57.528 64.2988 58.2107 63.1042 58.744C61.9308 59.2774 60.6295 59.544 59.2002 59.544C57.1522 59.544 55.3708 59.096 53.8562 58.2C52.3415 57.304 51.1575 55.9814 50.3042 54.232C49.4722 52.4614 49.0562 50.3387 49.0562 47.864C49.0562 45.4534 49.4828 43.3734 50.3362 41.624C51.2108 39.8747 52.4055 38.552 53.9202 37.656C55.4562 36.7387 57.1948 36.28 59.1362 36.28Z" fill="white"/>
<path d="M76.8214 36.28C79.9787 36.28 82.4321 37.2934 84.1814 39.32C85.9521 41.3467 86.8374 44.2054 86.8374 47.896C86.8374 50.3067 86.4321 52.3867 85.6214 54.136C84.8321 55.8854 83.6801 57.2294 82.1654 58.168C80.6721 59.0854 78.8907 59.544 76.8214 59.544C74.7521 59.544 72.9707 59.0854 71.4774 58.168C69.9841 57.2507 68.8321 55.928 68.0214 54.2C67.2321 52.4507 66.8374 50.3494 66.8374 47.896C66.8374 45.5067 67.2321 43.4374 68.0214 41.688C68.8321 39.9387 69.9841 38.6054 71.4774 37.688C72.9707 36.7494 74.7521 36.28 76.8214 36.28ZM76.8214 40.12C75.3067 40.12 74.1761 40.7387 73.4294 41.976C72.7041 43.192 72.3414 45.1654 72.3414 47.896C72.3414 50.6267 72.7147 52.6107 73.4614 53.848C74.2081 55.0854 75.3281 55.704 76.8214 55.704C78.3574 55.704 79.4881 55.096 80.2134 53.88C80.9601 52.6427 81.3334 50.648 81.3334 47.896C81.3334 45.144 80.9601 43.16 80.2134 41.944C79.4667 40.728 78.3361 40.12 76.8214 40.12Z" fill="white"/>
<path d="M107.074 59H100.386L93.9864 41.816C94.1997 43.5014 94.3597 44.9947 94.4664 46.296C94.5944 47.576 94.6584 49.1014 94.6584 50.872V59H89.9864V36.824H96.5144L103.074 54.04C102.605 51.1174 102.37 48.3654 102.37 45.784V36.824H107.074V59Z" fill="white"/>
<path d="M126.373 36.824L125.861 40.856H120.389V59H115.141V40.856H109.413V36.824H126.373Z" fill="white"/>
<path d="M138.573 59L137.421 54.232H130.957L129.837 59H124.397L131.085 36.824H137.453L144.141 59H138.573ZM131.853 50.424H136.525L134.189 40.632L131.853 50.424Z" fill="white"/>
<path d="M159.342 36.824L158.83 40.856H153.358V59H148.11V40.856H142.382V36.824H159.342Z" fill="white"/>
<path d="M169.29 36.28C172.447 36.28 174.901 37.2934 176.65 39.32C178.421 41.3467 179.306 44.2054 179.306 47.896C179.306 50.3067 178.901 52.3867 178.09 54.136C177.301 55.8854 176.149 57.2294 174.634 58.168C173.141 59.0854 171.359 59.544 169.29 59.544C167.221 59.544 165.439 59.0854 163.946 58.168C162.453 57.2507 161.301 55.928 160.49 54.2C159.701 52.4507 159.306 50.3494 159.306 47.896C159.306 45.5067 159.701 43.4374 160.49 41.688C161.301 39.9387 162.453 38.6054 163.946 37.688C165.439 36.7494 167.221 36.28 169.29 36.28ZM169.29 40.12C167.775 40.12 166.645 40.7387 165.898 41.976C165.173 43.192 164.81 45.1654 164.81 47.896C164.81 50.6267 165.183 52.6107 165.93 53.848C166.677 55.0854 167.797 55.704 169.29 55.704C170.826 55.704 171.957 55.096 172.682 53.88C173.429 52.6427 173.802 50.648 173.802 47.896C173.802 45.144 173.429 43.16 172.682 41.944C171.935 40.728 170.805 40.12 169.29 40.12Z" fill="white"/>
<path d="M210 82.5L248.432 64.5V50.5L210 31V42.5L240.464 61.5V53.5L210 71V82.5Z" fill="#70DA1C"/>
<path d="M38.432 51.5L0 33.5V19.5L38.432 0V11.5L7.96802 30.5V22.5L38.432 40V51.5Z" fill="#70DA1C"/>
<path d="M169 89L197.849 23H210L181.151 89H169Z" fill="#70DA1C"/>
</svg>
