<svg width="30" height="30" viewBox="0 0 30 30" fill="none" xmlns="http://www.w3.org/2000/svg">
<rect x="18.5667" y="1.29639" width="5.18541" height="31.1125" transform="rotate(36.6382 18.5667 1.29639)" fill="#70DA1C"/>
<rect x="25.8409" width="5.18541" height="31.1125" transform="rotate(36.6719 25.8409 0)" fill="#CCF235"/>
<path d="M13.16 8.14C15.3333 8.14 17.0733 8.63333 18.38 9.62C19.7 10.5933 20.36 12.3867 20.36 15C20.36 17.5733 19.72 19.3867 18.44 20.44C17.16 21.48 15.5 22 13.46 22H9.3V8.14H13.16ZM12.58 10.52V19.62H13.66C14.74 19.62 15.56 19.2867 16.12 18.62C16.68 17.94 16.96 16.7333 16.96 15C16.96 13.8133 16.82 12.8933 16.54 12.24C16.26 11.5867 15.88 11.14 15.4 10.9C14.92 10.6467 14.3267 10.52 13.62 10.52H12.58Z" fill="#292929"/>
</svg>
