<svg width="24" height="24" viewBox="0 0 24 24" fill="none" xmlns="http://www.w3.org/2000/svg">
<path d="M12 0.75C5.787 0.75 0.75 5.787 0.75 12C0.75 18.213 5.787 23.25 12 23.25C18.213 23.25 23.25 18.213 23.25 12C23.25 5.787 18.213 0.75 12 0.75ZM21.75 12C21.75 12.001 21.75 12.002 21.75 12.004C21.75 16.458 18.764 20.214 14.684 21.379L14.615 21.396V17.748C14.615 16.8827 14.383 16.2493 13.919 15.848C14.435 15.796 14.902 15.711 15.354 15.593L15.29 15.607C15.769 15.473 16.187 15.295 16.574 15.071L16.548 15.085C16.973 14.851 17.332 14.554 17.628 14.201L17.633 14.195C17.923 13.8423 18.1593 13.374 18.342 12.79C18.5247 12.206 18.616 11.5347 18.616 10.776C18.616 9.69667 18.2637 8.77767 17.559 8.019C17.889 7.207 17.8533 6.297 17.452 5.289C17.202 5.20833 16.8407 5.25733 16.368 5.436C15.893 5.612 15.488 5.81 15.105 6.043L15.137 6.025L14.628 6.346C13.858 6.125 12.973 5.998 12.058 5.998C11.143 5.998 10.259 6.125 9.42 6.362L9.488 6.346C8.898 5.219 7.402 5.147 6.651 5.289C6.151 6.086 6.211 7.343 6.557 8.019C5.85233 8.77767 5.5 9.69667 5.5 10.776C5.5 11.5347 5.59133 12.2037 5.774 12.783C5.95667 13.3623 6.191 13.8307 6.477 14.188C6.773 14.551 7.13 14.851 7.536 15.075L7.555 15.084C7.916 15.294 8.334 15.473 8.774 15.597L8.812 15.606C9.201 15.711 9.668 15.795 10.145 15.844L10.184 15.847C9.82733 16.1683 9.60867 16.628 9.528 17.226C9.355 17.31 9.154 17.379 8.943 17.424L8.926 17.427C8.712 17.47 8.466 17.494 8.215 17.494C8.197 17.494 8.179 17.494 8.161 17.494H8.164C7.86933 17.494 7.577 17.398 7.287 17.206C6.997 17.014 6.74933 16.735 6.544 16.369C6.378 16.088 6.161 15.856 5.902 15.678L5.895 15.673C5.63167 15.4943 5.411 15.3873 5.233 15.352L5.112 15.325C5.092 15.32 5.068 15.317 5.044 15.317C4.924 15.317 4.82 15.385 4.769 15.484L4.768 15.486L4.752 15.517C4.73 15.558 4.718 15.607 4.718 15.659C4.718 15.784 4.791 15.891 4.897 15.94L4.899 15.941C5.095 16.0303 5.289 16.2 5.481 16.45C5.64 16.648 5.781 16.872 5.894 17.112L5.903 17.132L6.037 17.44C6.15 17.776 6.355 18.057 6.622 18.26L6.626 18.263C6.876 18.459 7.179 18.6 7.51 18.662L7.523 18.664C7.799 18.718 8.12 18.752 8.448 18.758H8.453C8.49 18.759 8.534 18.76 8.578 18.76C8.796 18.76 9.01 18.742 9.218 18.708L9.195 18.711L9.503 18.658C9.503 18.9967 9.50533 19.3937 9.51 19.849C9.513 20.125 9.515 20.876 9.516 21.431C5.303 20.29 2.254 16.501 2.254 12C2.254 7.986 4.678 4.538 8.143 3.041L8.206 3.017C9.327 2.53 10.632 2.247 12.004 2.247C17.387 2.247 21.751 6.611 21.751 11.994C21.751 11.997 21.751 12 21.751 12.003L21.75 12Z" fill="#70DA1C"/>
</svg>
