<svg width="62" height="62" viewBox="0 0 62 62" fill="none" xmlns="http://www.w3.org/2000/svg">
<path fill-rule="evenodd" clip-rule="evenodd" d="M53 35.6902V51.0002H43.146V36.7492C43.146 33.0202 41.606 30.4772 38.217 30.4772C35.623 30.4772 34.179 32.1942 33.511 33.8462C33.257 34.4442 33.298 35.2702 33.298 36.1002V51.0002H23.535C23.535 51.0002 23.662 25.7602 23.535 23.4652H33.298V27.7872C33.875 25.8972 36.996 23.2022 41.971 23.2022C48.147 23.2022 53 27.1592 53 35.6902Z" stroke="#70DA1C" stroke-width="3" stroke-linejoin="round"/>
<path fill-rule="evenodd" clip-rule="evenodd" d="M9.543 51H18.231V23.466H9.543V51Z" stroke="#70DA1C" stroke-width="3" stroke-linejoin="round"/>
<path fill-rule="evenodd" clip-rule="evenodd" d="M18.7815 15.3799C18.7815 17.7979 16.9335 19.7149 13.9735 19.7149H13.9135C11.0595 19.7149 9.2115 17.8069 9.2115 15.3849C9.2115 12.9159 11.1145 11.0499 14.0285 11.0499C16.9335 11.0499 18.7215 12.9119 18.7815 15.3799Z" stroke="#70DA1C" stroke-width="3" stroke-linejoin="round"/>
<path fill-rule="evenodd" clip-rule="evenodd" d="M56 60H6C3.791 60 2 58.209 2 56V6C2 3.791 3.791 2 6 2H56C58.209 2 60 3.791 60 6V56C60 58.209 58.209 60 56 60Z" stroke="#70DA1C" stroke-width="3" stroke-linejoin="round"/>
</svg>
