<svg width="579" height="79" viewBox="0 0 579 79" fill="none" xmlns="http://www.w3.org/2000/svg">
<path d="M540 72.5L578.432 54.5V40.5L540 21V32.5L570.464 51.5V43.5L540 61V72.5Z" fill="#70DA1C"/>
<path d="M38.432 51.5L0 33.5V19.5L38.432 0V11.5L7.96802 30.5V22.5L38.432 40V51.5Z" fill="#70DA1C"/>
<path d="M499 79L527.849 13H540L511.151 79H499Z" fill="#70DA1C"/>
<path d="M55.9172 24.0519C59.8292 24.0519 62.9612 24.9399 65.3132 26.7159C67.6892 28.4679 68.8772 31.6959 68.8772 36.3999C68.8772 41.0319 67.7252 44.2959 65.4212 46.1919C63.1172 48.0639 60.1292 48.9999 56.4572 48.9999H48.9692V24.0519H55.9172ZM54.8732 28.3359V44.7159H56.8172C58.7612 44.7159 60.2372 44.1159 61.2452 42.9159C62.2532 41.6919 62.7572 39.5199 62.7572 36.3999C62.7572 34.2639 62.5052 32.6079 62.0012 31.4319C61.4972 30.2559 60.8132 29.4519 59.9492 29.0199C59.0852 28.5639 58.0172 28.3359 56.7452 28.3359H54.8732Z" fill="url(#paint0_linear_22_9)"/>
<path d="M85.2069 48.9999L83.9109 43.6359H76.6389L75.3789 48.9999H69.2589L76.7829 24.0519H83.9469L91.4709 48.9999H85.2069ZM77.6469 39.3519H82.9029L80.2749 28.3359L77.6469 39.3519Z" fill="url(#paint1_linear_22_9)"/>
<path d="M112.525 48.9999H105.001L97.8013 29.6679C98.0413 31.5639 98.2213 33.2439 98.3413 34.7079C98.4853 36.1479 98.5573 37.8639 98.5573 39.8559V48.9999H93.3013V24.0519H100.645L108.025 43.4199C107.497 40.1319 107.233 37.0359 107.233 34.1319V24.0519H112.525V48.9999Z" fill="url(#paint2_linear_22_9)"/>
<path d="M123.076 24.0519V48.9999H117.172V24.0519H123.076Z" fill="url(#paint3_linear_22_9)"/>
<path d="M143.019 24.0519L142.407 28.2639H133.623V34.2399H141.291V38.3799H133.623V44.7519H143.019V48.9999H127.719V24.0519H143.019Z" fill="url(#paint4_linear_22_9)"/>
<path d="M152.572 24.0519V44.3199H162.292L161.68 48.9999H146.668V24.0519H152.572Z" fill="url(#paint5_linear_22_9)"/>
<path d="M179.572 24.0519V44.3199H189.292L188.68 48.9999H173.668V24.0519H179.572Z" fill="url(#paint6_linear_22_9)"/>
<path d="M198.029 24.0519V48.9999H192.125V24.0519H198.029Z" fill="url(#paint7_linear_22_9)"/>
<path d="M215.956 35.7879C217.612 36.0999 218.956 36.7119 219.988 37.6239C221.044 38.5359 221.572 39.9039 221.572 41.7279C221.572 44.3919 220.612 46.2759 218.692 47.3799C216.796 48.4599 214.132 48.9999 210.7 48.9999H202.672V24.0519H209.728C213.232 24.0519 215.908 24.5559 217.756 25.5639C219.604 26.5479 220.528 28.1679 220.528 30.4239C220.528 31.8879 220.084 33.0759 219.196 33.9879C218.332 34.8759 217.252 35.4759 215.956 35.7879ZM208.576 28.2279V34.0239H210.772C213.268 34.0239 214.516 33.0159 214.516 30.9999C214.516 29.9919 214.18 29.2839 213.508 28.8759C212.836 28.4439 211.768 28.2279 210.304 28.2279H208.576ZM210.736 44.7159C212.296 44.7159 213.472 44.4879 214.264 44.0319C215.08 43.5519 215.488 42.6759 215.488 41.4039C215.488 39.0999 214.048 37.9479 211.168 37.9479H208.576V44.7159H210.736Z" fill="url(#paint8_linear_22_9)"/>
<path d="M240.191 24.0519L239.579 28.2639H230.795V34.2399H238.463V38.3799H230.795V44.7519H240.191V48.9999H224.891V24.0519H240.191Z" fill="url(#paint9_linear_22_9)"/>
<path d="M252.048 39.4599H249.744V48.9999H243.84V24.0519H252.012C255.42 24.0519 257.976 24.6759 259.68 25.9239C261.408 27.1719 262.272 29.0799 262.272 31.6479C262.272 33.2559 261.888 34.5999 261.12 35.6799C260.352 36.7359 259.14 37.6359 257.484 38.3799L263.82 48.9999H257.16L252.048 39.4599ZM249.744 35.3919H252.228C253.548 35.3919 254.532 35.0919 255.18 34.4919C255.852 33.8919 256.188 32.9439 256.188 31.6479C256.188 30.4479 255.828 29.5719 255.108 29.0199C254.412 28.4679 253.332 28.1919 251.868 28.1919H249.744V35.3919Z" fill="url(#paint10_linear_22_9)"/>
<path d="M282.42 24.0519L281.844 28.5879H275.688V48.9999H269.784V28.5879H263.34V24.0519H282.42Z" fill="url(#paint11_linear_22_9)"/>
<path d="M293.612 23.4399C297.164 23.4399 299.924 24.5799 301.892 26.8599C303.884 29.1399 304.88 32.3559 304.88 36.5079C304.88 39.2199 304.424 41.5599 303.512 43.5279C302.624 45.4959 301.328 47.0079 299.624 48.0639C297.944 49.0959 295.94 49.6119 293.612 49.6119C291.284 49.6119 289.28 49.0959 287.6 48.0639C285.92 47.0319 284.624 45.5439 283.712 43.5999C282.824 41.6319 282.38 39.2679 282.38 36.5079C282.38 33.8199 282.824 31.4919 283.712 29.5239C284.624 27.5559 285.92 26.0559 287.6 25.0239C289.28 23.9679 291.284 23.4399 293.612 23.4399ZM293.612 27.7599C291.908 27.7599 290.636 28.4559 289.796 29.8479C288.98 31.2159 288.572 33.4359 288.572 36.5079C288.572 39.5799 288.992 41.8119 289.832 43.2039C290.672 44.5959 291.932 45.2919 293.612 45.2919C295.34 45.2919 296.612 44.6079 297.428 43.2399C298.268 41.8479 298.688 39.6039 298.688 36.5079C298.688 33.4119 298.268 31.1799 297.428 29.8119C296.588 28.4439 295.316 27.7599 293.612 27.7599Z" fill="url(#paint12_linear_22_9)"/>
<path d="M323.913 24.0519C327.825 24.0519 330.957 24.9399 333.309 26.7159C335.685 28.4679 336.873 31.6959 336.873 36.3999C336.873 41.0319 335.721 44.2959 333.417 46.1919C331.113 48.0639 328.125 48.9999 324.453 48.9999H316.965V24.0519H323.913ZM322.869 28.3359V44.7159H324.813C326.757 44.7159 328.233 44.1159 329.241 42.9159C330.249 41.6919 330.753 39.5199 330.753 36.3999C330.753 34.2639 330.501 32.6079 329.997 31.4319C329.493 30.2559 328.809 29.4519 327.945 29.0199C327.081 28.5639 326.013 28.3359 324.741 28.3359H322.869Z" fill="url(#paint13_linear_22_9)"/>
<path d="M355.715 24.0519L355.103 28.2639H346.319V34.2399H353.987V38.3799H346.319V44.7519H355.715V48.9999H340.415V24.0519H355.715Z" fill="url(#paint14_linear_22_9)"/>
<path d="M381.047 48.9999L379.751 43.6359H372.479L371.219 48.9999H365.099L372.623 24.0519H379.787L387.311 48.9999H381.047ZM373.487 39.3519H378.743L376.115 28.3359L373.487 39.3519Z" fill="url(#paint15_linear_22_9)"/>
<path d="M395.045 24.0519V44.3199H404.765L404.153 48.9999H389.141V24.0519H395.045Z" fill="url(#paint16_linear_22_9)"/>
<path d="M432.015 48.9999H426.219L425.787 39.2439C425.667 36.9159 425.607 34.8399 425.607 33.0159C425.607 31.6239 425.643 30.3039 425.715 29.0559L421.863 46.3719H416.283L412.179 29.0559C412.323 31.1439 412.395 33.1119 412.395 34.9599C412.395 36.3519 412.359 37.8039 412.287 39.3159L411.855 48.9999H406.095L407.967 24.0519H415.419L419.163 40.9719L422.655 24.0519H430.143L432.015 48.9999Z" fill="url(#paint17_linear_22_9)"/>
<path d="M450.847 24.0519L450.235 28.2639H441.451V34.2399H449.119V38.3799H441.451V44.7519H450.847V48.9999H435.547V24.0519H450.847Z" fill="url(#paint18_linear_22_9)"/>
<path d="M460.401 24.0519V48.9999H454.497V24.0519H460.401Z" fill="url(#paint19_linear_22_9)"/>
<path d="M471.991 24.0519C475.903 24.0519 479.035 24.9399 481.387 26.7159C483.763 28.4679 484.951 31.6959 484.951 36.3999C484.951 41.0319 483.799 44.2959 481.495 46.1919C479.191 48.0639 476.203 48.9999 472.531 48.9999H465.043V24.0519H471.991ZM470.947 28.3359V44.7159H472.891C474.835 44.7159 476.311 44.1159 477.319 42.9159C478.327 41.6919 478.831 39.5199 478.831 36.3999C478.831 34.2639 478.579 32.6079 478.075 31.4319C477.571 30.2559 476.887 29.4519 476.023 29.0199C475.159 28.5639 474.091 28.3359 472.819 28.3359H470.947Z" fill="url(#paint20_linear_22_9)"/>
<path d="M501.281 48.9999L499.985 43.6359H492.713L491.453 48.9999H485.333L492.857 24.0519H500.021L507.545 48.9999H501.281ZM493.721 39.3519H498.977L496.349 28.3359L493.721 39.3519Z" fill="url(#paint21_linear_22_9)"/>
<defs>
<linearGradient id="paint0_linear_22_9" x1="132.978" y1="49" x2="278.761" y2="49" gradientUnits="userSpaceOnUse">
<stop stop-color="#2B2A2A"/>
<stop offset="1" stop-color="#494949"/>
</linearGradient>
<linearGradient id="paint1_linear_22_9" x1="132.978" y1="49" x2="278.761" y2="49" gradientUnits="userSpaceOnUse">
<stop stop-color="#2B2A2A"/>
<stop offset="1" stop-color="#494949"/>
</linearGradient>
<linearGradient id="paint2_linear_22_9" x1="132.978" y1="49" x2="278.761" y2="49" gradientUnits="userSpaceOnUse">
<stop stop-color="#2B2A2A"/>
<stop offset="1" stop-color="#494949"/>
</linearGradient>
<linearGradient id="paint3_linear_22_9" x1="132.978" y1="49" x2="278.761" y2="49" gradientUnits="userSpaceOnUse">
<stop stop-color="#2B2A2A"/>
<stop offset="1" stop-color="#494949"/>
</linearGradient>
<linearGradient id="paint4_linear_22_9" x1="132.978" y1="49" x2="278.761" y2="49" gradientUnits="userSpaceOnUse">
<stop stop-color="#2B2A2A"/>
<stop offset="1" stop-color="#494949"/>
</linearGradient>
<linearGradient id="paint5_linear_22_9" x1="132.978" y1="49" x2="278.761" y2="49" gradientUnits="userSpaceOnUse">
<stop stop-color="#2B2A2A"/>
<stop offset="1" stop-color="#494949"/>
</linearGradient>
<linearGradient id="paint6_linear_22_9" x1="132.978" y1="49" x2="278.761" y2="49" gradientUnits="userSpaceOnUse">
<stop stop-color="#2B2A2A"/>
<stop offset="1" stop-color="#494949"/>
</linearGradient>
<linearGradient id="paint7_linear_22_9" x1="132.978" y1="49" x2="278.761" y2="49" gradientUnits="userSpaceOnUse">
<stop stop-color="#2B2A2A"/>
<stop offset="1" stop-color="#494949"/>
</linearGradient>
<linearGradient id="paint8_linear_22_9" x1="132.978" y1="49" x2="278.761" y2="49" gradientUnits="userSpaceOnUse">
<stop stop-color="#2B2A2A"/>
<stop offset="1" stop-color="#494949"/>
</linearGradient>
<linearGradient id="paint9_linear_22_9" x1="132.978" y1="49" x2="278.761" y2="49" gradientUnits="userSpaceOnUse">
<stop stop-color="#2B2A2A"/>
<stop offset="1" stop-color="#494949"/>
</linearGradient>
<linearGradient id="paint10_linear_22_9" x1="132.978" y1="49" x2="278.761" y2="49" gradientUnits="userSpaceOnUse">
<stop stop-color="#2B2A2A"/>
<stop offset="1" stop-color="#494949"/>
</linearGradient>
<linearGradient id="paint11_linear_22_9" x1="132.978" y1="49" x2="278.761" y2="49" gradientUnits="userSpaceOnUse">
<stop stop-color="#2B2A2A"/>
<stop offset="1" stop-color="#494949"/>
</linearGradient>
<linearGradient id="paint12_linear_22_9" x1="132.978" y1="49" x2="278.761" y2="49" gradientUnits="userSpaceOnUse">
<stop stop-color="#2B2A2A"/>
<stop offset="1" stop-color="#494949"/>
</linearGradient>
<linearGradient id="paint13_linear_22_9" x1="132.978" y1="49" x2="278.761" y2="49" gradientUnits="userSpaceOnUse">
<stop stop-color="#2B2A2A"/>
<stop offset="1" stop-color="#494949"/>
</linearGradient>
<linearGradient id="paint14_linear_22_9" x1="132.978" y1="49" x2="278.761" y2="49" gradientUnits="userSpaceOnUse">
<stop stop-color="#2B2A2A"/>
<stop offset="1" stop-color="#494949"/>
</linearGradient>
<linearGradient id="paint15_linear_22_9" x1="132.978" y1="49" x2="278.761" y2="49" gradientUnits="userSpaceOnUse">
<stop stop-color="#2B2A2A"/>
<stop offset="1" stop-color="#494949"/>
</linearGradient>
<linearGradient id="paint16_linear_22_9" x1="132.978" y1="49" x2="278.761" y2="49" gradientUnits="userSpaceOnUse">
<stop stop-color="#2B2A2A"/>
<stop offset="1" stop-color="#494949"/>
</linearGradient>
<linearGradient id="paint17_linear_22_9" x1="132.978" y1="49" x2="278.761" y2="49" gradientUnits="userSpaceOnUse">
<stop stop-color="#2B2A2A"/>
<stop offset="1" stop-color="#494949"/>
</linearGradient>
<linearGradient id="paint18_linear_22_9" x1="132.978" y1="49" x2="278.761" y2="49" gradientUnits="userSpaceOnUse">
<stop stop-color="#2B2A2A"/>
<stop offset="1" stop-color="#494949"/>
</linearGradient>
<linearGradient id="paint19_linear_22_9" x1="132.978" y1="49" x2="278.761" y2="49" gradientUnits="userSpaceOnUse">
<stop stop-color="#2B2A2A"/>
<stop offset="1" stop-color="#494949"/>
</linearGradient>
<linearGradient id="paint20_linear_22_9" x1="132.978" y1="49" x2="278.761" y2="49" gradientUnits="userSpaceOnUse">
<stop stop-color="#2B2A2A"/>
<stop offset="1" stop-color="#494949"/>
</linearGradient>
<linearGradient id="paint21_linear_22_9" x1="132.978" y1="49" x2="278.761" y2="49" gradientUnits="userSpaceOnUse">
<stop stop-color="#2B2A2A"/>
<stop offset="1" stop-color="#494949"/>
</linearGradient>
</defs>
</svg>
