<svg width="31" height="31" viewBox="0 0 31 31" fill="none" xmlns="http://www.w3.org/2000/svg">
<path d="M0.0737305 31L2.25277 23.0395C0.908147 20.7093 0.201605 18.0678 0.202897 15.3592C0.206772 6.89104 7.09781 0 15.5647 0C19.6735 0.00129167 23.5304 1.60167 26.4315 4.50533C29.3313 7.409 30.9278 11.2685 30.9265 15.3734C30.9226 23.8429 24.0316 30.7339 15.5647 30.7339C12.9943 30.7326 10.4613 30.0881 8.21769 28.8636L0.0737305 31ZM8.59486 26.0826C10.7597 27.3678 12.8264 28.1377 15.5595 28.139C22.5965 28.139 28.3289 22.4117 28.3328 15.3708C28.3354 8.31575 22.6301 2.59625 15.5699 2.59367C8.52769 2.59367 2.79915 8.32092 2.79656 15.3605C2.79527 18.2345 3.63744 20.3864 5.05181 22.6377L3.76144 27.3497L8.59486 26.0826ZM23.3031 19.025C23.2075 18.8648 22.9517 18.7692 22.5668 18.5767C22.1832 18.3843 20.2961 17.4556 19.9434 17.3277C19.5921 17.1998 19.3364 17.1353 19.0793 17.5202C18.8236 17.9038 18.0873 18.7692 17.8639 19.025C17.6404 19.2807 17.4156 19.313 17.032 19.1205C16.6484 18.9281 15.411 18.5238 13.9449 17.2153C12.8044 16.1975 12.0333 14.9407 11.8098 14.5558C11.5864 14.1722 11.7866 13.9642 11.9777 13.773C12.1508 13.6012 12.3614 13.3248 12.5538 13.1001C12.7489 12.8779 12.8121 12.7177 12.9413 12.4607C13.0692 12.205 13.0059 11.9802 12.909 11.7878C12.8121 11.5966 12.0449 9.70687 11.7259 8.93833C11.4133 8.19046 11.0968 8.29121 10.8617 8.27958L10.1255 8.26667C9.86973 8.26667 9.45381 8.36225 9.10248 8.74717C8.75115 9.13208 7.75915 10.0595 7.75915 11.9492C7.75915 13.8389 9.13477 15.664 9.32594 15.9198C9.5184 16.1755 12.032 20.0531 15.8824 21.7155C16.7982 22.1108 17.5138 22.3471 18.0705 22.5241C18.9902 22.816 19.8272 22.7747 20.4885 22.6765C21.2261 22.5667 22.7593 21.7478 23.0796 20.8514C23.3999 19.9537 23.3999 19.1851 23.3031 19.025Z" fill="#70DA1C"/>
</svg>
