<svg width="177" height="37" viewBox="0 0 177 37" fill="none" xmlns="http://www.w3.org/2000/svg">
<path d="M6.08276 14.5048C6.86483 13.2736 7.93655 12.2733 9.29793 11.5038C10.6883 10.7343 12.2669 10.3496 14.0338 10.3496C16.0903 10.3496 17.9441 10.8882 19.5952 11.9655C21.2752 13.0428 22.5931 14.5818 23.549 16.5824C24.5338 18.5523 25.0262 20.8454 25.0262 23.4617C25.0262 26.078 24.5338 28.4018 23.549 30.4333C22.5931 32.434 21.2752 33.9883 19.5952 35.0964C17.9441 36.2045 16.0903 36.7585 14.0338 36.7585C12.2379 36.7585 10.6593 36.3891 9.29793 35.6504C7.96552 34.8809 6.89379 33.896 6.08276 32.6956V36.343H0V2.17757H6.08276V14.5048ZM18.8131 23.4617C18.8131 21.9227 18.509 20.5992 17.9007 19.4911C17.3214 18.3523 16.5393 17.4904 15.5545 16.9056C14.6039 16.3223 13.5239 16.0194 12.4262 16.0284C11.3255 16.0284 10.2828 16.3362 9.29793 16.9518C8.34207 17.5366 7.56 18.3984 6.95172 19.5373C6.37241 20.6761 6.08276 22.015 6.08276 23.554C6.08276 25.093 6.37241 26.4319 6.95172 27.5708C7.56 28.7096 8.34207 29.5868 9.29793 30.2024C10.2828 30.7872 11.3255 31.0797 12.4262 31.0797C13.5559 31.0797 14.5986 30.7719 15.5545 30.1563C16.5393 29.5407 17.3214 28.6634 17.9007 27.5246C18.509 26.3858 18.8131 25.0315 18.8131 23.4617V23.4617ZM32.5307 7.71791C31.459 7.71791 30.561 7.36394 29.8369 6.65601C29.1417 5.9173 28.7941 5.0093 28.7941 3.93201C28.7941 2.85473 29.1417 1.96212 29.8369 1.25419C30.561 0.515474 31.459 0.146118 32.5307 0.146118C33.6024 0.146118 34.4859 0.515474 35.181 1.25419C35.9052 1.96212 36.2672 2.85473 36.2672 3.93201C36.2672 5.0093 35.9052 5.9173 35.181 6.65601C34.4859 7.36394 33.6024 7.71791 32.5307 7.71791V7.71791ZM35.5286 10.7651V36.343H29.4459V10.7651H35.5286ZM55.79 36.343L47.6217 25.447V36.343H41.539V2.17757H47.6217V21.6149L55.7031 10.7651H63.6107L53.0093 23.6002L63.6976 36.343H55.79ZM64.1405 23.554C64.1405 20.907 64.6474 18.5985 65.6612 16.6286C66.675 14.6279 68.0798 13.089 69.8757 12.0117C71.6716 10.9036 73.7281 10.3496 76.0453 10.3496C79.0288 10.3496 81.4909 11.1498 83.4315 12.7504C85.4012 14.3201 86.7191 16.5363 87.3853 19.3988H80.8259C80.4783 18.2907 79.8845 17.4289 79.0445 16.8133C78.2335 16.1669 77.2197 15.8437 76.0031 15.8437C74.2652 15.8437 72.8893 16.5209 71.8755 17.8752C70.8617 19.1987 70.3548 21.0917 70.3548 23.554C70.3548 25.9856 70.8617 27.8786 71.8755 29.2329C72.8893 30.5564 74.2652 31.2182 76.0031 31.2182C78.4652 31.2182 80.0728 30.0485 80.8259 27.7093H87.3865C86.7203 30.4794 85.4024 32.6802 83.4328 34.3115C81.4631 35.9428 79.001 36.7585 76.0465 36.7585C73.7293 36.7585 71.6728 36.2198 69.8769 35.1426C68.0953 34.0501 66.6357 32.4512 65.6624 30.5256C64.6486 28.5249 64.1417 26.2011 64.1417 23.554H64.1405V23.554ZM96.7183 14.7357C97.4642 13.4192 98.5102 12.3236 99.7597 11.55C101.034 10.7805 102.482 10.3957 104.104 10.3957V17.1826H102.497C100.585 17.1826 99.1369 17.6597 98.1521 18.6139C97.1962 19.5681 96.7183 21.2302 96.7183 23.6002V36.343H90.6355V10.7651H96.7183V14.7357V14.7357ZM122.756 32.6956C122.09 33.8652 121.003 34.8502 119.497 35.6504C117.991 36.4199 116.369 36.8047 114.631 36.8047C113.125 36.8047 111.763 36.4815 110.547 35.8351C109.33 35.1887 108.374 34.2961 107.679 33.1573C106.984 32.0184 106.637 30.7103 106.637 29.2329C106.637 26.8628 107.462 24.9237 109.113 23.4155C110.793 21.9073 113.299 21.1532 116.63 21.1532H122.756C122.698 19.5219 122.249 18.2292 121.409 17.275C120.598 16.29 119.468 15.7976 118.02 15.7976C116.746 15.7976 115.688 16.1669 114.848 16.9056C114.008 17.6136 113.472 18.6139 113.241 19.9066H107.158C107.448 18.0599 108.07 16.4132 109.026 14.9665C110.002 13.4967 111.32 12.3199 112.85 11.55C114.443 10.7189 116.224 10.3034 118.194 10.3034C120.221 10.3034 122.046 10.7497 123.668 11.6423C125.279 12.4948 126.623 13.8261 127.535 15.4744C128.462 17.1365 128.926 19.091 128.926 21.3379V36.343H122.756V32.6956V32.6956ZM116.412 31.5875C117.426 31.5875 118.411 31.3567 119.367 30.895C120.352 30.4333 121.163 29.7407 121.8 28.8173C122.437 27.894 122.756 26.8013 122.756 25.5393V25.3546H116.977C115.587 25.3546 114.544 25.647 113.849 26.2319C113.183 26.8167 112.85 27.5862 112.85 28.5403C112.85 29.4637 113.154 30.2024 113.762 30.7565C114.399 31.3105 115.283 31.5875 116.412 31.5875V31.5875ZM141.754 16.0746V36.343H135.584V16.0746H132.847V10.7651H135.584V9.47235C135.584 6.33283 136.424 4.02435 138.104 2.54693C139.784 1.06951 142.318 0.376966 145.707 0.469304V5.9173C144.23 5.88652 143.202 6.14815 142.623 6.70218C142.043 7.25621 141.754 8.25655 141.754 9.70319V10.7651H149.659V4.43988H155.785V10.7651H161.173V16.0746H155.785V28.448C155.785 29.3098 155.973 29.9408 156.35 30.3409C156.755 30.7103 157.422 30.895 158.348 30.895H161.173V36.343H157.349C152.222 36.343 149.659 33.6959 149.659 28.4018V16.0746H141.754V16.0746Z" fill="#0A0A0A"/>
<path d="M176.655 31.9655C176.655 34.7079 174.494 36.931 171.828 36.931C169.161 36.931 167 34.7079 167 31.9655C167 29.2231 169.161 27 171.828 27C174.494 27 176.655 29.2231 176.655 31.9655Z" fill="#FFBB00"/>
</svg>
