<svg width="182" height="37" viewBox="0 0 182 37" fill="none" xmlns="http://www.w3.org/2000/svg">
<path d="M6.08276 14.4871C6.86483 13.2875 7.93655 12.3128 9.29793 11.563C10.6883 10.8133 12.2669 10.4384 14.0338 10.4384C16.0903 10.4384 17.9441 10.9632 19.5952 12.0129C21.2752 13.0626 22.5931 14.5621 23.549 16.5115C24.5338 18.4308 25.0262 20.6651 25.0262 23.2143C25.0262 25.7635 24.5338 28.0278 23.549 30.0071C22.5931 31.9565 21.2752 33.471 19.5952 34.5507C17.9441 35.6303 16.0903 36.1702 14.0338 36.1702C12.2379 36.1702 10.6593 35.8103 9.29793 35.0905C7.96552 34.3408 6.89379 33.3811 6.08276 32.2114V35.7653H0V2.47595H6.08276V14.4871ZM18.8131 23.2143C18.8131 21.7148 18.509 20.4252 17.9007 19.3456C17.3214 18.2359 16.5393 17.3962 15.5545 16.8264C14.6039 16.2579 13.5239 15.9629 12.4262 15.9716C11.3255 15.9716 10.2828 16.2715 9.29793 16.8713C8.34207 17.4412 7.56 18.2809 6.95172 19.3905C6.37241 20.5002 6.08276 21.8048 6.08276 23.3043C6.08276 24.8038 6.37241 26.1084 6.95172 27.218C7.56 28.3277 8.34207 29.1824 9.29793 29.7822C10.2828 30.352 11.3255 30.6369 12.4262 30.6369C13.5559 30.6369 14.5986 30.337 15.5545 29.7372C16.5393 29.1374 17.3214 28.2827 17.9007 27.1731C18.509 26.0634 18.8131 24.7438 18.8131 23.2143V23.2143ZM32.5307 7.87422C31.459 7.87422 30.561 7.52933 29.8369 6.83955C29.1417 6.11978 28.7941 5.23507 28.7941 4.1854C28.7941 3.13574 29.1417 2.26602 29.8369 1.57624C30.561 0.856467 31.459 0.496582 32.5307 0.496582C33.6024 0.496582 34.4859 0.856467 35.181 1.57624C35.9052 2.26602 36.2672 3.13574 36.2672 4.1854C36.2672 5.23507 35.9052 6.11978 35.181 6.83955C34.4859 7.52933 33.6024 7.87422 32.5307 7.87422V7.87422ZM35.5286 10.8433V35.7653H29.4459V10.8433H35.5286ZM55.79 35.7653L47.6217 25.1487V35.7653H41.539V2.47595H47.6217V21.4149L55.7031 10.8433H63.6107L53.0093 23.3493L63.6976 35.7653H55.79ZM64.1405 23.3043C64.1405 20.7251 64.6474 18.4758 65.6612 16.5564C66.675 14.6071 68.0798 13.1075 69.8757 12.0579C71.6716 10.9782 73.7281 10.4384 76.0453 10.4384C79.0288 10.4384 81.4909 11.2182 83.4315 12.7777C85.4012 14.3072 86.7191 16.4665 87.3853 19.2556H80.8259C80.4783 18.1759 79.8845 17.3362 79.0445 16.7364C78.2335 16.1066 77.2197 15.7917 76.0031 15.7917C74.2652 15.7917 72.8893 16.4515 71.8755 17.7711C70.8617 19.0606 70.3548 20.9051 70.3548 23.3043C70.3548 25.6735 70.8617 27.5179 71.8755 28.8375C72.8893 30.1271 74.2652 30.7719 76.0031 30.7719C78.4652 30.7719 80.0728 29.6323 80.8259 27.353H87.3865C86.7203 30.0521 85.4024 32.1964 83.4328 33.7859C81.4631 35.3754 79.001 36.1702 76.0465 36.1702C73.7293 36.1702 71.6728 35.6453 69.8769 34.5957C68.0953 33.5313 66.6357 31.9734 65.6624 30.0971C64.6486 28.1477 64.1417 25.8835 64.1417 23.3043H64.1405V23.3043ZM96.7183 14.712C97.4642 13.4293 98.5102 12.3618 99.7597 11.608C101.034 10.8583 102.482 10.4834 104.104 10.4834V17.0963H102.497C100.585 17.0963 99.1369 17.5611 98.1521 18.4908C97.1962 19.4205 96.7183 21.04 96.7183 23.3493V35.7653H90.6355V10.8433H96.7183V14.712V14.712ZM122.756 32.2114C122.09 33.3511 121.003 34.3108 119.497 35.0905C117.991 35.8403 116.369 36.2152 114.631 36.2152C113.125 36.2152 111.763 35.9003 110.547 35.2705C109.33 34.6407 108.374 33.7709 107.679 32.6613C106.984 31.5517 106.637 30.2771 106.637 28.8375C106.637 26.5283 107.462 24.6389 109.113 23.1693C110.793 21.6998 113.299 20.965 116.63 20.965H122.756C122.698 19.3755 122.249 18.1159 121.409 17.1862C120.598 16.2266 119.468 15.7467 118.02 15.7467C116.746 15.7467 115.688 16.1066 114.848 16.8264C114.008 17.5161 113.472 18.4908 113.241 19.7504H107.158C107.448 17.951 108.07 16.3465 109.026 14.937C110.002 13.5049 111.32 12.3582 112.85 11.608C114.443 10.7983 116.224 10.3934 118.194 10.3934C120.221 10.3934 122.046 10.8283 123.668 11.698C125.279 12.5287 126.623 13.8258 127.535 15.4318C128.462 17.0513 128.926 18.9557 128.926 21.145V35.7653H122.756V32.2114V32.2114ZM116.412 31.1318C117.426 31.1318 118.411 30.9069 119.367 30.457C120.352 30.0071 121.163 29.3324 121.8 28.4326C122.437 27.5329 122.756 26.4683 122.756 25.2387V25.0587H116.977C115.587 25.0587 114.544 25.3436 113.849 25.9135C113.183 26.4833 112.85 27.233 112.85 28.1627C112.85 29.0624 113.154 29.7822 113.762 30.322C114.399 30.8619 115.283 31.1318 116.412 31.1318V31.1318ZM141.754 16.0166V35.7653H135.584V16.0166H132.847V10.8433H135.584V9.58368C135.584 6.52465 136.424 4.27537 138.104 2.83583C139.784 1.39629 142.318 0.72151 145.707 0.811481V6.11978C144.23 6.08979 143.202 6.34471 142.623 6.88454C142.043 7.42437 141.754 8.39905 141.754 9.8086V10.8433H149.659V4.68024H155.785V10.8433H161.173V16.0166H155.785V28.0728C155.785 28.9125 155.973 29.5273 156.35 29.9172C156.755 30.2771 157.422 30.457 158.348 30.457H161.173V35.7653H157.349C152.222 35.7653 149.659 33.1861 149.659 28.0278V16.0166H141.754V16.0166Z" fill="#0A0A0A"/>
<path d="M181.035 25.0346C181.035 27.777 178.873 30.0001 176.207 30.0001C173.541 30.0001 171.379 27.777 171.379 25.0346C171.379 22.2922 173.541 20.0691 176.207 20.0691C178.873 20.0691 181.035 22.2922 181.035 25.0346Z" fill="#FFBB00"/>
</svg>
