<svg width="155" height="44" viewBox="0 0 155 44" fill="none" xmlns="http://www.w3.org/2000/svg">
<path d="M12.5 6C12.5 8.20914 10.7091 10 8.5 10C6.29086 10 4.5 8.20914 4.5 6C4.5 3.79086 6.29086 2 8.5 2C10.7091 2 12.5 3.79086 12.5 6Z" fill="#333333"/>
<circle cx="25.5" cy="6" r="4" fill="#333333"/>
<path d="M3.7874 20.7244L3.61674 19.7004C3.54226 19.2535 3.28613 18.8574 2.90917 18.6061C2.35862 18.2391 1.64138 18.2391 1.09083 18.6061L0.927305 18.7151C0.647288 18.9018 0.420835 19.1583 0.270331 19.4593L0.2353 19.5294C0.0805599 19.8389 0 20.1801 0 20.5261V21.3145C0 21.7698 0.0558356 22.2233 0.166257 22.665L0.221799 22.8872C0.405896 23.6236 0.715225 24.3228 1.13627 24.9544L1.30388 25.2058C1.43431 25.4015 1.58374 25.5837 1.75 25.75C1.91626 25.9163 2.09854 26.0657 2.29417 26.1961L3.5 27L3.68441 27.1229C4.55757 27.705 5.50444 28.1681 6.5 28.5L7.04479 28.6362C8.01128 28.8778 9.00376 29 10 29H11.1749C12.0463 29 12.9058 28.7971 13.6852 28.4074C14.2249 28.1376 14.7175 27.7825 15.1441 27.3559L15.5 27L15.9048 26.5952C16.4714 26.0286 17.4147 26.122 17.8591 26.7887C17.9521 26.9282 18.0718 27.0479 18.2113 27.1409L19.5 28C20.8153 28.6576 22.2656 29 23.7361 29H24H25.5569C26.1815 29 26.8021 28.8993 27.3947 28.7017C27.797 28.5677 28.1835 28.3899 28.5471 28.1718L29.4538 27.6277C30.1486 27.2108 30.7897 26.7103 31.3627 26.1373L31.4004 26.0996C32.1287 25.3713 32.7348 24.5303 33.1954 23.6091L33.2846 23.4307C33.428 23.1439 33.5509 22.8473 33.6523 22.5432C33.8826 21.8522 34 21.1287 34 20.4004V20L33.7297 19.4593C33.5792 19.1583 33.3527 18.9018 33.0727 18.7151L32.8321 18.5547C32.3282 18.2188 31.6718 18.2188 31.1679 18.5547C30.7507 18.8329 30.5 19.3012 30.5 19.8028V20.2773C30.5 20.7486 30.3605 21.2092 30.0991 21.6013L29.7464 22.1303C29.5825 22.3762 29.3948 22.6052 29.1858 22.8142L28.6441 23.3559C28.2175 23.7825 27.7249 24.1376 27.1852 24.4074L27.118 24.441C26.3828 24.8086 25.572 25 24.75 25C23.928 25 23.1172 24.8086 22.382 24.441L22.2121 24.3561C21.7405 24.1202 21.3099 23.8099 20.937 23.437L20.317 22.817C19.7939 22.2939 19.5 21.5844 19.5 20.8446C19.5 20.2939 19.663 19.7555 19.9685 19.2973L20.3487 18.727C20.4493 18.576 20.5646 18.4354 20.6929 18.3071L20.8592 18.1408C21.2695 17.7305 21.5 17.174 21.5 16.5938C21.5 15.9053 21.1758 15.2568 20.6249 14.8437L20.3 14.6C19.7807 14.2105 19.1491 14 18.5 14H16H15.0607C14.3815 14 13.7302 14.2698 13.25 14.75L13.2071 14.7929C12.7544 15.2456 12.5 15.8597 12.5 16.5C12.5 17.1403 12.7544 17.7544 13.2071 18.2071L13.5 18.5L14.3244 19.3244C14.757 19.757 15 20.3437 15 20.9555C15 21.3136 14.9166 21.6668 14.7565 21.987L14.7037 22.0926C14.5688 22.3624 14.3913 22.6087 14.1779 22.8221L13.879 23.121C13.6269 23.3731 13.3506 23.5996 13.0541 23.7973L12 24.5L11.4351 24.8766C10.8254 25.2831 10.109 25.5 9.3762 25.5C8.79999 25.5 8.23168 25.3658 7.7163 25.1082L7.31476 24.9074C6.77512 24.6376 6.2825 24.2825 5.85588 23.8559L5.5 23.5L4.91441 22.9144C4.3197 22.3197 3.92567 21.554 3.7874 20.7244Z" fill="#333333"/>
<path d="M41 15C41 13.8954 41.8954 13 43 13H63C64.1046 13 65 13.8954 65 15V35C65 36.1046 64.1046 37 63 37H43C41.8954 37 41 36.1046 41 35V15Z" fill="#FFBB00"/>
<path d="M47.1118 32.0001V31.2321L51.1918 29.2641V3.05607L47.1118 1.08807V0.320068H63.4798C67.2878 0.320068 70.5198 0.944068 73.1758 2.19207C75.8318 3.44007 77.8478 5.15207 79.2238 7.32807C80.6318 9.50407 81.3358 11.9681 81.3358 14.7201C81.3358 17.2161 80.8718 19.5201 79.9438 21.6321C79.0478 23.7441 77.7838 25.5681 76.1518 27.1041C74.5198 28.6401 72.5998 29.8401 70.3918 30.7041C68.1838 31.5681 65.7678 32.0001 63.1438 32.0001H47.1118ZM61.5118 2.96007H58.4398V29.3601H62.1838C65.8958 29.3601 68.7598 28.1761 70.7758 25.8081C72.7918 23.4081 73.7998 20.2081 73.7998 16.2081C73.7998 12.1761 72.7598 8.96007 70.6798 6.56007C68.6318 4.16007 65.5758 2.96007 61.5118 2.96007Z" fill="#333333"/>
<path d="M96.9174 32.4801C94.6454 32.4801 92.6454 31.9681 90.9174 30.9441C89.1894 29.8881 87.8454 28.4961 86.8854 26.7681C85.9254 25.0401 85.4454 23.1361 85.4454 21.0561C85.4454 18.9441 85.9254 17.0241 86.8854 15.2961C87.8454 13.5681 89.1894 12.1921 90.9174 11.1681C92.6454 10.1441 94.6454 9.63207 96.9174 9.63207C99.1894 9.63207 101.173 10.1441 102.869 11.1681C104.597 12.1921 105.941 13.5681 106.901 15.2961C107.861 17.0241 108.341 18.9441 108.341 21.0561C108.341 23.1361 107.861 25.0401 106.901 26.7681C105.941 28.4961 104.597 29.8881 102.869 30.9441C101.173 31.9681 99.1894 32.4801 96.9174 32.4801ZM97.4454 30.1281C98.3734 30.1281 99.1254 29.7601 99.7014 29.0241C100.309 28.2561 100.741 27.2481 100.997 26.0001C101.285 24.7521 101.429 23.4241 101.429 22.0161C101.429 20.2881 101.253 18.6561 100.901 17.1201C100.581 15.5841 100.053 14.3361 99.3174 13.3761C98.6134 12.4161 97.6694 11.9361 96.4854 11.9361C95.5254 11.9361 94.7414 12.3201 94.1334 13.0881C93.5254 13.8241 93.0774 14.8161 92.7894 16.0641C92.5014 17.2801 92.3574 18.6081 92.3574 20.0481C92.3574 21.8081 92.5334 23.4561 92.8854 24.9921C93.2374 26.4961 93.7814 27.7281 94.5174 28.6881C95.2854 29.6481 96.2614 30.1281 97.4454 30.1281Z" fill="#333333"/>
<path d="M122.351 24.7041C120.847 24.7041 119.455 24.4481 118.175 23.9361C117.471 24.3841 117.119 25.0081 117.119 25.8081C117.119 27.3441 118.351 28.1121 120.815 28.1121H126.095C128.623 28.1121 130.479 28.6721 131.663 29.7921C132.847 30.8801 133.439 32.4961 133.439 34.6401C133.439 36.1121 132.927 37.5201 131.903 38.8641C130.879 40.2401 129.423 41.3601 127.535 42.2241C125.679 43.0881 123.455 43.5201 120.863 43.5201C117.759 43.5201 115.535 43.0241 114.191 42.0321C112.847 41.0721 112.175 39.8561 112.175 38.3841C112.175 37.8081 112.239 37.2801 112.367 36.8001C112.527 36.3521 112.751 35.8881 113.039 35.4081L116.063 33.4881V33.2481C113.599 32.4481 112.367 30.8641 112.367 28.4961C112.367 27.0241 112.815 25.8241 113.711 24.8961L116.447 23.3121V23.0241C115.423 22.3521 114.607 21.5201 113.999 20.5281C113.423 19.5041 113.135 18.3841 113.135 17.1681C113.135 15.7281 113.535 14.4481 114.335 13.3281C115.167 12.2081 116.271 11.3281 117.647 10.6881C119.023 10.0161 120.591 9.68007 122.351 9.68007C123.279 9.68007 124.191 9.77607 125.087 9.96807C125.983 10.1601 126.687 10.3841 127.199 10.6401L134.591 10.1601V13.0401L129.791 12.6561L129.599 12.8481C130.175 13.3601 130.639 14.0001 130.991 14.7681C131.343 15.5361 131.519 16.3361 131.519 17.1681C131.519 18.6081 131.119 19.9041 130.319 21.0561C129.519 22.1761 128.415 23.0721 127.007 23.7441C125.631 24.3841 124.079 24.7041 122.351 24.7041ZM122.687 22.6401C123.711 22.6401 124.479 22.1601 124.991 21.2001C125.535 20.2081 125.807 18.9121 125.807 17.3121C125.807 15.4881 125.471 14.0961 124.799 13.1361C124.127 12.1441 123.263 11.6481 122.207 11.6481C121.119 11.6481 120.303 12.1441 119.759 13.1361C119.215 14.1281 118.943 15.4241 118.943 17.0241C118.943 18.8481 119.279 20.2401 119.951 21.2001C120.623 22.1601 121.535 22.6401 122.687 22.6401ZM116.255 37.4721C116.255 38.7201 116.687 39.7441 117.551 40.5441C118.415 41.3761 119.679 41.7921 121.343 41.7921C123.391 41.7921 125.007 41.3121 126.191 40.3521C127.375 39.4241 127.967 38.3201 127.967 37.0401C127.967 35.8241 127.647 34.9761 127.007 34.4961C126.367 34.0161 125.247 33.7761 123.647 33.7761H119.519C119.039 33.7761 118.575 33.7601 118.127 33.7281C116.879 34.5281 116.255 35.7761 116.255 37.4721Z" fill="#333333"/>
<path d="M145.829 32.4801C144.261 32.4801 142.885 32.3201 141.701 32.0001C140.549 31.7121 139.413 31.2961 138.293 30.7521V25.1841H139.013L140.693 27.6801C141.877 29.4721 143.525 30.3681 145.637 30.3681C148.133 30.3681 149.381 29.4561 149.381 27.6321C149.381 26.9601 149.205 26.4161 148.853 26.0001C148.501 25.5841 147.925 25.1841 147.125 24.8001C146.357 24.4161 145.285 23.9361 143.909 23.3601C142.117 22.6241 140.789 21.7601 139.925 20.7681C139.061 19.7761 138.629 18.5441 138.629 17.0721C138.629 15.6961 138.981 14.4481 139.685 13.3281C140.421 12.2081 141.413 11.3121 142.661 10.6401C143.909 9.96807 145.317 9.63207 146.885 9.63207C147.973 9.63207 149.029 9.74407 150.053 9.96807C151.109 10.1921 152.133 10.5601 153.125 11.0721V16.7841H152.405L150.917 14.5281C150.309 13.6001 149.685 12.9121 149.045 12.4641C148.405 12.0161 147.637 11.7921 146.741 11.7921C145.781 11.7921 144.997 12.0321 144.389 12.5121C143.813 12.9921 143.525 13.6641 143.525 14.5281C143.525 15.1041 143.653 15.6001 143.909 16.0161C144.197 16.4001 144.693 16.7841 145.397 17.1681C146.101 17.5521 147.109 18.0001 148.421 18.5121C149.317 18.8641 150.197 19.2801 151.061 19.7601C151.957 20.2081 152.693 20.8641 153.269 21.7281C153.877 22.5601 154.181 23.7281 154.181 25.2321C154.181 26.7361 153.781 28.0321 152.981 29.1201C152.181 30.2081 151.141 31.0401 149.861 31.6161C148.613 32.1921 147.269 32.4801 145.829 32.4801Z" fill="#333333"/>
</svg>
