<svg width="206" height="31" viewBox="0 0 206 31" fill="none" xmlns="http://www.w3.org/2000/svg">
<path d="M45.1198 5.88809C47.9571 5.88809 50.1545 6.47476 51.7118 7.64809C53.2905 8.82143 54.0798 10.5814 54.0798 12.9281C54.0798 15.3814 53.2905 17.2268 51.7118 18.4641C50.1331 19.6801 48.0318 20.2881 45.4078 20.2881H42.8158V28.0001H38.5918V5.88809H45.1198ZM45.0878 17.1201C46.6025 17.1201 47.7438 16.8108 48.5118 16.1921C49.2798 15.5521 49.6638 14.4641 49.6638 12.9281C49.6638 10.3041 48.1385 8.99209 45.0878 8.99209H42.8158V17.1201H45.0878Z" fill="#3D3D3D"/>
<path d="M70.2893 19.1361C70.2893 19.3494 70.2573 19.9041 70.1933 20.8001H59.5693C59.6973 22.4428 60.124 23.6161 60.8493 24.3201C61.5746 25.0241 62.5346 25.3761 63.7293 25.3761C64.476 25.3761 65.18 25.2588 65.8413 25.0241C66.5026 24.7681 67.2066 24.3841 67.9533 23.8721L69.6493 26.2081C67.772 27.7228 65.6813 28.4801 63.3773 28.4801C60.796 28.4801 58.8013 27.6908 57.3933 26.1121C56.0066 24.5334 55.3133 22.3788 55.3133 19.6481C55.3133 17.9201 55.612 16.3734 56.2093 15.0081C56.8066 13.6214 57.6706 12.5441 58.8013 11.7761C59.932 10.9868 61.276 10.5921 62.8333 10.5921C65.2013 10.5921 67.036 11.3494 68.3373 12.8641C69.6386 14.3574 70.2893 16.4481 70.2893 19.1361ZM66.2253 17.9521C66.2253 14.9868 65.1266 13.5041 62.9293 13.5041C61.9266 13.5041 61.1373 13.8774 60.5613 14.6241C60.0066 15.3494 59.676 16.5228 59.5693 18.1441H66.2253V17.9521Z" fill="#3D3D3D"/>
<path d="M83.6598 27.2001C83.0625 27.6268 82.3905 27.9468 81.6438 28.1601C80.9185 28.3734 80.1718 28.4801 79.4038 28.4801C77.7398 28.4588 76.4705 27.9894 75.5958 27.0721C74.7425 26.1334 74.3158 24.7574 74.3158 22.9441V14.0161H71.6598V11.0721H74.3158V7.32809L78.4118 6.84809V11.0721H82.3478L81.9318 14.0161H78.4118V22.8481C78.4118 23.6801 78.5505 24.2774 78.8278 24.6401C79.1265 25.0028 79.5851 25.1841 80.2038 25.1841C80.8225 25.1841 81.4945 24.9814 82.2198 24.5761L83.6598 27.2001Z" fill="#3D3D3D"/>
<path d="M115.052 28.0001H110.924L110.348 18.7521C110.156 15.4454 110.06 12.8214 110.06 10.8801V9.72809L106.028 25.6001H102.028L97.7398 9.69609C97.7825 11.1041 97.8038 12.1708 97.8038 12.8961C97.8038 14.8374 97.7398 16.8321 97.6118 18.8801L97.0678 28.0001H92.9718L94.7318 5.88809H100.172L104.108 21.3761L107.82 5.88809H113.324L115.052 28.0001Z" fill="#3D3D3D"/>
<path d="M125.907 10.5921C128.403 10.5921 130.344 11.3921 131.731 12.9921C133.139 14.5708 133.843 16.7468 133.843 19.5201C133.843 21.2908 133.523 22.8588 132.883 24.2241C132.243 25.5681 131.326 26.6134 130.131 27.3601C128.936 28.1068 127.518 28.4801 125.875 28.4801C123.379 28.4801 121.427 27.6908 120.019 26.1121C118.611 24.5121 117.907 22.3148 117.907 19.5201C117.907 17.7494 118.227 16.1921 118.867 14.8481C119.507 13.5041 120.424 12.4588 121.619 11.7121C122.835 10.9654 124.264 10.5921 125.907 10.5921ZM125.907 13.6961C123.454 13.6961 122.227 15.6374 122.227 19.5201C122.227 21.5254 122.526 23.0081 123.123 23.9681C123.742 24.9068 124.659 25.3761 125.875 25.3761C127.091 25.3761 127.998 24.8961 128.595 23.9361C129.214 22.9761 129.523 21.5041 129.523 19.5201C129.523 17.5361 129.214 16.0748 128.595 15.1361C127.998 14.1761 127.102 13.6961 125.907 13.6961Z" fill="#3D3D3D"/>
<path d="M146.707 10.5921C148.221 10.5921 149.395 11.0508 150.227 11.9681C151.08 12.8641 151.507 14.1228 151.507 15.7441V28.0001H147.411V16.3841C147.411 15.3814 147.229 14.6774 146.867 14.2721C146.525 13.8668 146.013 13.6641 145.331 13.6641C144.627 13.6641 143.987 13.8881 143.411 14.3361C142.856 14.7628 142.312 15.3921 141.779 16.2241V28.0001H137.683V11.0721H141.235L141.555 13.2801C142.941 11.4881 144.659 10.5921 146.707 10.5921Z" fill="#3D3D3D"/>
<path d="M160.372 11.0721V28.0001H156.276V11.0721H160.372ZM158.292 2.49609C159.06 2.49609 159.679 2.74143 160.148 3.23209C160.639 3.70143 160.884 4.28809 160.884 4.99209C160.884 5.69609 160.639 6.28276 160.148 6.75209C159.679 7.22143 159.06 7.45609 158.292 7.45609C157.546 7.45609 156.927 7.22143 156.436 6.75209C155.967 6.28276 155.732 5.69609 155.732 4.99209C155.732 4.28809 155.967 3.70143 156.436 3.23209C156.927 2.74143 157.546 2.49609 158.292 2.49609Z" fill="#3D3D3D"/>
<path d="M175.004 27.2001C174.406 27.6268 173.734 27.9468 172.988 28.1601C172.262 28.3734 171.516 28.4801 170.748 28.4801C169.084 28.4588 167.814 27.9894 166.94 27.0721C166.086 26.1334 165.66 24.7574 165.66 22.9441V14.0161H163.004V11.0721H165.66V7.32809L169.756 6.84809V11.0721H173.692L173.276 14.0161H169.756V22.8481C169.756 23.6801 169.894 24.2774 170.172 24.6401C170.47 25.0028 170.929 25.1841 171.548 25.1841C172.166 25.1841 172.838 24.9814 173.564 24.5761L175.004 27.2001Z" fill="#3D3D3D"/>
<path d="M183.688 10.5921C186.184 10.5921 188.126 11.3921 189.512 12.9921C190.92 14.5708 191.624 16.7468 191.624 19.5201C191.624 21.2908 191.304 22.8588 190.664 24.2241C190.024 25.5681 189.107 26.6134 187.912 27.3601C186.718 28.1068 185.299 28.4801 183.656 28.4801C181.16 28.4801 179.208 27.6908 177.8 26.1121C176.392 24.5121 175.688 22.3148 175.688 19.5201C175.688 17.7494 176.008 16.1921 176.648 14.8481C177.288 13.5041 178.206 12.4588 179.4 11.7121C180.616 10.9654 182.046 10.5921 183.688 10.5921ZM183.688 13.6961C181.235 13.6961 180.008 15.6374 180.008 19.5201C180.008 21.5254 180.307 23.0081 180.904 23.9681C181.523 24.9068 182.44 25.3761 183.656 25.3761C184.872 25.3761 185.779 24.8961 186.376 23.9361C186.995 22.9761 187.304 21.5041 187.304 19.5201C187.304 17.5361 186.995 16.0748 186.376 15.1361C185.779 14.1761 184.883 13.6961 183.688 13.6961Z" fill="#3D3D3D"/>
<path d="M203.816 10.6241C204.434 10.6241 205 10.6988 205.512 10.8481L204.808 14.8161C204.296 14.6881 203.794 14.6241 203.304 14.6241C202.301 14.6241 201.512 14.9868 200.936 15.7121C200.36 16.4161 199.901 17.5041 199.56 18.9761V28.0001H195.464V11.0721H199.016L199.4 14.4001C199.805 13.1841 200.392 12.2561 201.16 11.6161C201.928 10.9548 202.813 10.6241 203.816 10.6241Z" fill="#3D3D3D"/>
<path d="M14.9033 7.13853V7.66126C14.9033 8.05707 14.9604 8.45081 15.0729 8.83031L15.2114 9.29792C15.2918 9.56911 15.4308 9.81928 15.6188 10.0307C15.9844 10.4421 16.5086 10.6774 17.059 10.6774H17.484H17.7434C18.4193 10.6774 19.0837 10.5034 19.6728 10.172C20.2131 9.86811 20.674 9.44083 21.0178 8.92502L21.2795 8.53248C21.5488 8.12851 21.7673 7.69286 21.93 7.23541L22.2717 6.27416C22.4527 5.76505 22.5453 5.2287 22.5453 4.68837V4.36474C22.5453 4.05916 22.4949 3.75567 22.3963 3.46645C22.2767 3.11601 22.0884 2.79295 21.8424 2.51621L21.829 2.50113C21.5177 2.15083 21.1256 1.88175 20.6867 1.71719L20.4673 1.63491C20.201 1.53504 19.9189 1.48389 19.6345 1.48389C19.3501 1.48389 19.068 1.53504 18.8017 1.63491L18.2051 1.85862C18.0114 1.93127 17.8235 2.0187 17.6432 2.12014C17.253 2.3396 16.9021 2.62241 16.6046 2.95699L16.5074 3.06637C16.2987 3.30116 16.113 3.55543 15.9529 3.82569L15.6893 4.27045C15.453 4.66928 15.2668 5.09579 15.1351 5.54028C14.9814 6.05911 14.9033 6.5974 14.9033 7.13853Z" fill="#107910"/>
<path d="M20.1783 14.447L20.2786 14.7855C20.4174 15.254 20.7333 15.6501 21.1592 15.8897C21.2894 15.963 21.428 16.0204 21.5718 16.0609L22.153 16.2243C22.7525 16.3929 23.3901 16.3659 23.9732 16.1473C24.2337 16.0496 24.479 15.9152 24.7017 15.7483L25.124 15.4315C25.478 15.166 25.8044 14.8656 26.0984 14.5349L26.3163 14.2897C26.7356 13.8181 27.1086 13.3073 27.4303 12.7644L27.8069 12.129L27.9797 11.7402C28.1493 11.3585 28.237 10.9454 28.237 10.5278V10.4482C28.237 9.96474 28.1069 9.49021 27.8605 9.07432L27.8405 9.04056C27.5404 8.53412 27.0763 8.14536 26.5251 7.93866C26.235 7.82989 25.9278 7.77417 25.618 7.77417H25.3827C24.7161 7.77417 24.0609 7.94582 23.4799 8.2726L23.3164 8.36457C22.8723 8.61439 22.4728 8.93632 22.1342 9.31717L21.3553 10.1935L21.2284 10.3362C20.4789 11.1794 20.0649 12.2683 20.0649 13.3964V13.6656C20.0649 13.9301 20.1031 14.1933 20.1783 14.447Z" fill="#107910"/>
<path d="M24.3836 17.2048L24.1325 17.2754C23.7174 17.3921 23.3236 17.5746 22.9662 17.8159L22.1153 18.3902C21.6134 18.729 21.1825 19.1624 20.8466 19.6662L20.6285 19.9934C20.261 20.5446 20.0649 21.1922 20.0649 21.8547C20.0649 22.4566 20.2269 23.0475 20.5337 23.5653L20.7405 23.9143C20.8633 24.1215 21.0057 24.3165 21.1658 24.4965L21.4213 24.784C21.6604 25.053 21.9615 25.2596 22.2985 25.386C22.7996 25.5739 23.3518 25.5739 23.8529 25.386L24.0092 25.3274C24.2459 25.2386 24.4687 25.1166 24.6709 24.9649L25.124 24.6251C25.478 24.3596 25.8044 24.0592 26.0984 23.7285L26.5584 23.211C26.8167 22.9205 27.0464 22.6059 27.2446 22.2715L27.4656 21.8985C27.6913 21.5177 27.8466 21.0994 27.924 20.6635L28.0251 20.095C28.1589 19.3424 27.9407 18.5699 27.4328 17.9985C27.1154 17.6414 26.7022 17.3829 26.2423 17.2535L26.0689 17.2048C25.5178 17.0498 24.9347 17.0498 24.3836 17.2048Z" fill="#107910"/>
<path d="M8.05471 9.82902L8.6619 10.2389C9.08535 10.5247 9.58457 10.6774 10.0955 10.6774C10.7003 10.6774 11.2856 10.4635 11.7478 10.0735L12.1593 9.72625C12.5512 9.39565 12.8764 8.99341 13.1177 8.54106L13.5257 7.77605C13.8688 7.13263 14.123 6.44558 14.2812 5.73374C14.4086 5.16028 14.4729 4.57459 14.4729 3.98715V3.90323V3.34883C14.4729 3.0763 14.4157 2.8068 14.305 2.55776C14.1348 2.17467 13.8454 1.85673 13.48 1.65119L13.3447 1.57504C13.2368 1.51435 13.1244 1.46204 13.0084 1.41857L12.9629 1.40148C12.2726 1.14263 11.5119 1.14263 10.8216 1.40148C10.6754 1.45632 10.5335 1.52233 10.3974 1.59892L10.306 1.65035C9.93239 1.86048 9.59636 2.13126 9.3116 2.45161L8.45139 3.41935L7.9763 3.95383C7.72047 4.24163 7.50015 4.55912 7.32007 4.89948C7.10761 5.30103 6.95314 5.73065 6.86125 6.17555L6.81186 6.41471C6.75807 6.67519 6.73096 6.94048 6.73096 7.20646V7.33838C6.73096 7.62741 6.77266 7.91493 6.85477 8.19205C7.05278 8.86036 7.47698 9.43905 8.05471 9.82902Z" fill="#107910"/>
<path d="M2 16.8115V18.0293C2 18.4277 2.06667 18.8233 2.19725 19.1998C2.35098 19.643 2.59051 20.0515 2.90216 20.4021L3.62966 21.2206C4.25788 21.9273 5.01518 22.5077 5.86094 22.9306L6.24698 23.1236C7.66481 23.8325 8.76477 25.0479 9.32909 26.5293C9.60204 27.2458 10.003 27.9067 10.5124 28.4798L11.6585 29.7691C12.3545 30.5521 13.3521 31.0001 14.3997 31.0001C15.5315 31.0001 16.6 30.4775 17.2948 29.5841L18.1234 28.5188C18.831 27.6091 19.2809 26.5259 19.4261 25.3826L19.6344 23.742V20.0883C19.6344 19.3014 19.5364 18.5175 19.3427 17.7547L19.2523 17.3986C18.9381 16.1618 18.3317 15.0184 17.4839 14.0646L16.6237 13.0969L16.5453 13.0087C16.0299 12.4289 15.3977 11.9645 14.6902 11.6462C13.9801 11.3266 13.2102 11.1614 12.4315 11.1614H11.4624H8.27579C7.82051 11.1614 7.36621 11.2036 6.91873 11.2875L6.36861 11.3906C5.47858 11.5575 4.64697 11.9522 3.95487 12.5362C3.51485 12.9074 3.13901 13.3487 2.84246 13.8421L2.80736 13.9005C2.27909 14.7796 2 15.7859 2 16.8115Z" fill="#107910"/>
</svg>
