<svg width="227" height="49" viewBox="0 0 227 49" fill="none" xmlns="http://www.w3.org/2000/svg">
<g filter="url(#filter0_d_22_95)">
<path d="M29.7 41.2171C28.4137 41.2527 27.1397 40.9534 25.9988 40.3474C24.8578 39.7415 23.8876 38.8489 23.18 37.7543C20.9527 39.8758 18.0475 41.1056 15 41.2171C9.54 41.2171 6.58 37.296 7.58 31.6741C8.34 27.4475 11.74 23.2107 12.69 19.8091C10.85 18.6684 8.12 17.874 6.84 20.2063L6 19.6868C6.67 17.1305 8.29 15.4297 10.63 15.4297C12.97 15.4297 14.7 16.8453 16.93 15.5417H18.71C17.76 20.634 15.36 24.7079 14.08 31.8371C13.3 36.2063 14.75 38.1923 17.2 38.1923C19.0168 37.9592 20.6843 37.0484 21.88 35.6359C20.902 33.1459 20.4095 30.4857 20.43 27.804C20.43 21.6117 23.22 15.0834 27.9 15.0834C30.3 15.0834 32.08 16.7842 32.08 20.8173C32.08 24.8504 29.68 31.0936 26.62 35.0147C26.7853 35.9483 27.2653 36.7939 27.9773 37.4056C28.6893 38.0173 29.5886 38.3567 30.52 38.3654C34.98 38.3654 38.1 31.5519 38.1 25.2476C38.1 18.9434 35.42 19.2285 35.65 17.1C35.6909 16.5648 35.9377 16.0677 36.3365 15.7168C36.7354 15.3659 37.2541 15.1895 37.78 15.226C39.17 15.226 41 17.0185 41 24.2903C41 33.5583 36.16 41.2171 29.7 41.2171V41.2171ZM28.69 18.2814C27.3 18.2814 25.96 23.5061 25.79 28.9039C25.7251 30.0581 25.7451 31.2156 25.85 32.3667C27.9503 28.8268 29.2295 24.8453 29.59 20.7257C29.58 18.8925 29.25 18.2814 28.69 18.2814V18.2814ZM50.16 40.9829C49.5768 41.0444 48.9875 40.9746 48.4337 40.7784C47.8799 40.5822 47.3753 40.2644 46.9555 39.8476C46.5357 39.4307 46.211 38.9249 46.0044 38.3661C45.7978 37.8073 45.7144 37.209 45.76 36.6137C45.76 34.1184 48.94 21.683 48.94 19.6359C48.94 18.6684 48.72 18.0981 47.88 18.0981C46.9406 18.2551 46.0675 18.6909 45.37 19.3508V17.5888C46.818 16.2265 48.6998 15.4419 50.67 15.3788C51.2567 15.3251 51.8479 15.4024 52.4022 15.6053C52.9566 15.8083 53.4608 16.1319 53.8797 16.5537C54.2987 16.9755 54.6222 17.4853 54.8278 18.0476C55.0333 18.6098 55.116 19.2109 55.07 19.8091C55.07 22.3043 51.89 34.6888 51.89 36.7257C51.89 37.6932 52.11 38.2636 52.95 38.2636C53.8767 38.1038 54.7439 37.6921 55.46 37.072V38.7728C54.0175 40.1438 52.1324 40.9299 50.16 40.9829ZM54.06 5.04139C54.4958 5.02703 54.9295 5.10961 55.3308 5.28338C55.7321 5.45715 56.0914 5.71793 56.3836 6.04755C56.6759 6.37718 56.894 6.76772 57.0229 7.19199C57.1518 7.61625 57.1884 8.06404 57.13 8.50416C57.0239 9.44288 56.5877 10.3107 55.902 10.9473C55.2164 11.5839 54.3276 11.9461 53.4 11.9669C52.9642 11.9813 52.5305 11.8987 52.1292 11.7249C51.7279 11.5512 51.3686 11.2904 51.0764 10.9608C50.7841 10.6311 50.566 10.2406 50.4371 9.81633C50.3082 9.39206 50.2716 8.94427 50.33 8.50416C50.4361 7.56543 50.8723 6.69757 51.558 6.06101C52.2436 5.42446 53.1324 5.06226 54.06 5.04139V5.04139ZM66.44 35.6461C66.16 37.184 66.33 38.2534 67.39 38.2534C68.3201 38.1048 69.1902 37.6917 69.9 37.0618L70 38.7728C68.552 40.1351 66.6702 40.9198 64.7 40.9829C61.24 40.9829 59.9 38.4265 60.41 35.2489L63.81 15.5417C64.94 8.96246 64.55 8.09677 61.09 8.09677L61.31 6.50798L71.74 5.1025L66.44 35.6461ZM95.77 35.5952C95.49 37.1331 95.6 38.2636 96.72 38.2636C97.6518 38.0827 98.5187 37.6501 99.23 37.0109V38.7728C97.7916 40.1503 95.9039 40.9375 93.93 40.9829C92.9324 41.0571 91.9437 40.7479 91.1588 40.1164C90.3739 39.4848 89.8499 38.5767 89.69 37.571C88.8541 38.6987 87.7763 39.617 86.5389 40.256C85.3015 40.8949 83.9372 41.2376 82.55 41.2578C75.92 41.2578 73.13 35.2998 74.41 28.1401C75.69 20.9803 81.66 15.1343 88.41 15.1343C90.0078 15.1005 91.5877 15.4826 93 16.2445L93.17 15.338C94.49 8.33102 93.88 8.09677 90.42 8.09677L90.59 6.50798L101.07 5.1025L95.77 35.5952ZM88.58 17.7009C84.73 17.7009 82.17 22.3552 81.16 28.0891C80.1 34.1082 80.77 38.2737 84.39 38.2737C86.84 38.2737 89.63 35.2184 90.47 30.5538L92.53 18.7397C91.3422 18.0056 89.9683 17.6443 88.58 17.7009V17.7009ZM113.39 41.268C105.64 41.268 103.52 35.585 104.47 30.1362L107 15.5417C108.17 8.95228 107.78 8.04585 104.32 8.04585L104.54 6.45705L115 5.1025L112.88 17.4768C114.508 16.0355 116.574 15.2115 118.73 15.1445C125.48 15.1445 128.65 20.9905 127.43 28.1503C126.21 35.31 120 41.268 113.39 41.268ZM117.01 17.8434C115.883 17.8672 114.793 18.2534 113.895 18.9467C112.997 19.64 112.337 20.605 112.01 21.7034L110.45 30.8695C109.5 36.3183 111.4 38.5385 113.8 38.5385C117.31 38.5385 119.49 34.5666 120.66 28.0382C121.7 22.1923 120.75 17.874 117 17.874L117.01 17.8434ZM138 31.4501C138 35.8193 140.06 38.1515 144 38.1515C146 38.1515 148.91 36.7359 150.75 34.8619L151.53 36.6748C150.209 38.1014 148.62 39.2437 146.858 40.0344C145.095 40.8251 143.195 41.248 141.27 41.2782C135.42 41.2782 131.46 36.8479 131.46 30.8288C131.46 21.9173 138.71 15.1547 145.68 15.1547C149.92 15.1547 152.31 17.5379 152.31 20.3183C152.26 24.6366 148.24 29.4844 138 31.4501ZM145.19 17.762C142.01 17.762 138.95 22.4774 138.11 29.2298C144.52 27.641 147.25 23.2107 147.31 20.3692C147.3 18.7804 146.57 17.762 145.18 17.762H145.19ZM175.06 40.9829C174.062 41.0571 173.074 40.7479 172.289 40.1164C171.504 39.4848 170.98 38.5767 170.82 37.571C170.015 38.698 168.964 39.6181 167.748 40.2581C166.533 40.8982 165.188 41.2405 163.82 41.2578C157.3 41.2578 154.51 35.2998 155.82 28.1401C157.13 20.9803 163 15.1445 169.77 15.1445C171.206 15.1367 172.628 15.4278 173.95 16H180.31L176.9 35.5952C176.62 37.1331 176.73 38.2636 177.85 38.2636C178.782 38.0827 179.649 37.6501 180.36 37.0109V38.7728C178.922 40.1503 177.034 40.9375 175.06 40.9829V40.9829ZM169.93 17.7009C166.19 17.7009 163.57 22.3552 162.57 28.0891C161.51 34.1082 162.24 38.2737 165.57 38.2737C168.13 38.2737 170.87 35.0962 171.65 30.5538L173.71 18.7397C172.589 18.0055 171.272 17.6427 169.94 17.7009H169.93ZM199.82 21.846C198.31 21.846 197.92 20.6544 197.48 19.4017C197.332 18.7703 196.972 18.2114 196.463 17.821C195.954 17.4306 195.327 17.2333 194.69 17.2629C193.863 17.2187 193.05 17.4908 192.409 18.0259C191.769 18.5611 191.349 19.3206 191.23 20.1553C191.06 21.6932 192.18 22.9968 194.3 24.8708L197.14 27.254C198.199 28.0708 199.018 29.1666 199.51 30.423C200.001 31.6794 200.147 33.0488 199.93 34.3832C199.21 38.6404 195.75 41.2578 191.12 41.2578C185.54 41.2578 181.98 37.9071 182.37 35.6359C182.46 35.0384 182.756 34.4931 183.205 34.0975C183.654 33.7019 184.226 33.4819 184.82 33.4768C186.27 33.4768 186.82 34.6073 187.27 36.0841C187.558 36.9321 188.114 37.6593 188.85 38.1529C189.586 38.6464 190.461 38.8787 191.34 38.8135C192.209 38.8552 193.061 38.565 193.731 37.9998C194.401 37.4346 194.839 36.6352 194.96 35.7581C195.18 33.7212 193.96 32.4685 191.67 30.3603L188.88 27.8651C187.896 27.0986 187.13 26.0801 186.659 24.9136C186.189 23.747 186.03 22.4741 186.2 21.2247C186.7 18.4953 189.2 15.114 194.95 15.114C199.41 15.114 202.2 17.6703 201.95 19.7174C201.923 20.2799 201.688 20.8113 201.294 21.2057C200.899 21.6002 200.373 21.8288 199.82 21.846V21.846ZM220.23 18.2814H214.82L212.2 33.375C211.64 36.5016 212.09 37.9173 213.76 37.9173C214.65 37.9173 216.05 37.4081 218.05 35.31L218.16 37.5201C217.255 38.6129 216.129 39.4936 214.858 40.1018C213.588 40.71 212.204 41.0314 210.8 41.044C207.01 41.044 205.11 38.3145 206.01 33.2629L208.63 18.2814H204.4L204.73 15.9491H209L210.12 9.19671H216.36L215.19 15.9491H220.6L220.23 18.2814Z" fill="#3D3D3D"/>
</g>
<defs>
<filter id="filter0_d_22_95" x="0" y="0.0397949" width="226.6" height="48.2385" filterUnits="userSpaceOnUse" color-interpolation-filters="sRGB">
<feFlood flood-opacity="0" result="BackgroundImageFix"/>
<feColorMatrix in="SourceAlpha" type="matrix" values="0 0 0 0 0 0 0 0 0 0 0 0 0 0 0 0 0 0 127 0" result="hardAlpha"/>
<feOffset dy="1"/>
<feGaussianBlur stdDeviation="3"/>
<feComposite in2="hardAlpha" operator="out"/>
<feColorMatrix type="matrix" values="0 0 0 0 0.00833333 0 0 0 0 0.00833333 0 0 0 0 0.00833333 0 0 0 0.25 0"/>
<feBlend mode="normal" in2="BackgroundImageFix" result="effect1_dropShadow_22_95"/>
<feBlend mode="normal" in="SourceGraphic" in2="effect1_dropShadow_22_95" result="shape"/>
</filter>
</defs>
</svg>
